<?xml version="1.0" encoding="utf-8"?>
<!-- Generator: Adobe Illustrator 16.0.0, SVG Export Plug-In . SVG Version: 6.00 Build 0)  -->
<!DOCTYPE svg PUBLIC "-//W3C//DTD SVG 1.1//EN" "http://www.w3.org/Graphics/SVG/1.1/DTD/svg11.dtd">
<svg version="1.1" id="Layer_1" xmlns="http://www.w3.org/2000/svg" xmlns:xlink="http://www.w3.org/1999/xlink" x="0px" y="0px"
	 width="124.915px" height="81.314px" viewBox="0 0 124.915 81.314" enable-background="new 0 0 124.915 81.314"
	 xml:space="preserve">
<g>
	<path d="M11.716,53.53c0,0-0.057-0.018-0.166-0.052c-0.116-0.042-0.257-0.069-0.499-0.167c-0.264-0.131-0.627-0.307-0.965-0.523
		c-0.28-0.219-0.637-0.449-0.967-0.748c-0.667-0.596-1.435-1.344-2.166-2.305c-0.76-0.94-1.499-2.082-2.192-3.386
		c-0.691-1.306-1.275-2.806-1.722-4.442c-0.381-1.654-0.624-3.448-0.488-5.308c0.021-0.463,0.125-0.925,0.186-1.392l0.108-0.701
		l0.198-0.687c0.149-0.471,0.23-0.894,0.439-1.408c0.19-0.421,0.381-0.844,0.572-1.27c0.909-1.717,2.088-3.366,3.549-4.634
		c0.674-0.708,1.505-1.226,2.26-1.824c0.397-0.272,0.821-0.502,1.229-0.753c0.413-0.242,0.811-0.508,1.251-0.69
		c0.862-0.398,1.701-0.827,2.593-1.095c0.438-0.15,0.875-0.3,1.307-0.448c0.445-0.106,0.886-0.212,1.324-0.317
		c0.868-0.246,1.75-0.332,2.606-0.45c0.853-0.155,1.704-0.113,2.523-0.158c0.821-0.065,1.618,0.061,2.388,0.097
		c0.773,0.022,1.504,0.178,2.208,0.303c1.421,0.187,2.652,0.673,3.769,0.967c1.066,0.455,2.014,0.804,2.757,1.172
		c1.454,0.798,2.285,1.253,2.285,1.253s-0.844-0.428-2.322-1.176c-0.752-0.341-1.708-0.659-2.779-1.075
		c-1.121-0.255-2.35-0.696-3.761-0.833c-0.698-0.101-1.422-0.231-2.185-0.228c-0.759-0.01-1.543-0.109-2.347-0.018
		c-0.803,0.071-1.635,0.056-2.464,0.236c-0.833,0.144-1.689,0.254-2.526,0.522c-0.422,0.115-0.848,0.232-1.276,0.349
		c-0.415,0.158-0.833,0.317-1.253,0.478c-0.854,0.287-1.652,0.73-2.469,1.14c-0.418,0.188-0.792,0.458-1.181,0.703
		c-0.383,0.254-0.782,0.486-1.153,0.759c-0.701,0.597-1.479,1.113-2.091,1.806c-0.317,0.333-0.661,0.642-0.955,0.993l-0.839,1.084
		c-0.305,0.348-0.492,0.749-0.723,1.125c-0.21,0.396-0.479,0.719-0.634,1.178c-0.177,0.431-0.354,0.86-0.529,1.287
		c-0.127,0.344-0.221,0.832-0.333,1.235L4.12,34.763l-0.075,0.644c-0.04,0.428-0.125,0.848-0.128,1.271
		c-0.068,1.696,0.21,3.326,0.605,4.828c0.463,1.489,1.043,2.853,1.722,4.038c0.681,1.18,1.396,2.212,2.116,3.043
		c0.694,0.857,1.403,1.492,1.984,1.982c0.291,0.248,0.57,0.406,0.8,0.58c0.209,0.117,0.342,0.179,0.465,0.266
		c0.167,0.068,0.365,0.106,0.465,0.14c0.11,0.03,0.167,0.046,0.167,0.046L11.716,53.53z"/>
</g>
<g>
	<path d="M26.648,21.021c0,0,0.056-0.158,0.16-0.454c0.043-0.14,0.235-0.448,0.413-0.723c0.202-0.333,0.398-0.472,0.637-0.74
		c0.475-0.479,1.087-0.944,1.811-1.42c0.727-0.468,1.572-0.926,2.516-1.362c0.951-0.418,1.991-0.843,3.128-1.177
		c1.126-0.366,2.353-0.62,3.626-0.831c1.283-0.157,2.621-0.291,3.989-0.172c0.686,0.009,1.359,0.167,2.057,0.266
		c0.65,0.152,1.297,0.286,1.959,0.47c1.319,0.335,2.606,0.753,3.851,1.236c1.25,0.469,2.425,1.071,3.535,1.688
		c1.081,0.67,2.11,1.352,2.969,2.141c0.887,0.754,1.62,1.583,2.244,2.378c0.609,0.808,1.114,1.588,1.483,2.32
		c0.418,0.706,0.635,1.394,0.881,1.924c0.204,0.549,0.326,0.995,0.426,1.292c0.095,0.298,0.146,0.458,0.146,0.458
		s-0.058-0.157-0.167-0.451c-0.114-0.292-0.256-0.729-0.484-1.266c-0.271-0.518-0.515-1.188-0.962-1.867
		c-0.397-0.706-0.932-1.451-1.565-2.214c-0.649-0.75-1.4-1.525-2.298-2.218c-0.87-0.729-1.903-1.343-2.979-1.943
		c-1.107-0.549-2.27-1.078-3.507-1.478c-1.229-0.412-2.508-0.763-3.795-1.026c-0.634-0.146-1.303-0.252-1.956-0.373
		c-0.623-0.053-1.256-0.177-1.89-0.152c-1.264-0.052-2.515,0.133-3.707,0.335c-1.188,0.256-2.329,0.546-3.373,0.941
		c-1.054,0.363-2.01,0.808-2.875,1.237c-0.856,0.446-1.609,0.902-2.233,1.347c-0.616,0.448-1.119,0.874-1.449,1.244
		c-0.142,0.174-0.354,0.378-0.366,0.451c-0.052,0.115-0.128,0.104-0.174,0.266c-0.09,0.3-0.138,0.46-0.138,0.46L26.648,21.021z"/>
</g>
<g>
	<path d="M42.674,69.387c-0.029,0.001-0.072,0.213-0.724,0.824c-0.55,0.478-1.422,0.971-2.526,1.292
		c-2.211,0.667-5.355,0.896-9.047,0.505c-1.845-0.201-3.832-0.552-5.878-1.211c-0.512-0.162-1.025-0.356-1.54-0.57l-0.385-0.171
		l-0.211-0.097l-0.179-0.093l-0.723-0.37c-0.996-0.557-1.988-1.172-2.893-1.908c-1.852-1.434-3.484-3.279-4.713-5.414
		c-1.228-2.135-1.94-4.602-2.097-7.083c-0.032-0.62-0.015-1.243-0.008-1.862c0.071-0.624,0.089-1.216,0.206-1.861
		c0.175-1.16,0.638-2.42,1.134-3.504c1.096-2.183,2.584-4.075,4.231-5.664c1.646-1.59,3.396-2.964,5.298-3.916
		c1.957-0.814,3.872-1.275,5.664-1.6c1.792-0.314,3.463-0.438,4.94-0.402c1.477,0.027,2.76,0.216,3.784,0.483
		c0.256,0.065,0.499,0.127,0.728,0.186c0.222,0.079,0.43,0.153,0.624,0.223c0.39,0.13,0.715,0.257,0.966,0.391
		c0.51,0.244,0.783,0.375,0.783,0.375s-0.275-0.123-0.792-0.354c-0.253-0.127-0.581-0.245-0.973-0.365
		c-0.194-0.064-0.403-0.132-0.626-0.206c-0.229-0.052-0.472-0.108-0.729-0.167c-1.024-0.24-2.302-0.393-3.766-0.382
		c-1.464,0.003-3.115,0.167-4.879,0.524c-1.755,0.363-3.669,0.883-5.522,1.711c-1.787,0.952-3.492,2.355-5.051,3.945
		c-1.566,1.591-2.957,3.468-3.942,5.563c-0.45,1.09-0.818,2.099-0.979,3.326c-0.084,0.539-0.093,1.156-0.144,1.731
		c0.01,0.585,0.008,1.173,0.053,1.755c0.21,2.326,0.931,4.598,2.125,6.555c1.194,1.953,2.758,3.636,4.52,4.927
		c0.87,0.671,1.793,1.206,2.706,1.69l0.732,0.352l0.182,0.088l0.156,0.065l0.351,0.146c0.474,0.182,0.949,0.348,1.429,0.486
		c1.92,0.564,3.825,0.853,5.581,0.998c3.514,0.288,6.488-0.038,8.307-0.648c0.919-0.294,1.499-0.68,1.794-0.947
		c0.19-0.15,0.405-0.51,0.397-0.49L42.674,69.387z"/>
</g>
<path fill="none" stroke="#000000" stroke-width="2" stroke-miterlimit="10" d="M41.604,15.065c-0.125-2,7.875-11.75,17.125-12.875
	s20.75,1.625,23.875,6s6.25,8.375,5.75,12.375"/>
<g>
	<path d="M75.729,23.44c0,0,0.04-0.174,0.271-0.399c0.223-0.228,0.601-0.506,1.117-0.797c1.034-0.581,2.619-1.22,4.605-1.684
		c1.981-0.463,4.372-0.747,6.936-0.586c2.559,0.154,5.287,0.787,7.787,1.982c1.253,0.572,2.439,1.362,3.523,2.097
		c0.549,0.388,1.09,0.814,1.625,1.218c0.498,0.443,1.019,0.853,1.482,1.311c0.938,0.903,1.791,1.848,2.494,2.835
		c0.705,0.983,1.293,1.984,1.713,2.972c0.449,0.975,0.716,1.937,0.908,2.795c0.168,0.866,0.262,1.638,0.263,2.279
		c0.021,0.64-0.016,1.147-0.054,1.491c-0.04,0.345-0.062,0.529-0.062,0.529l-1.971-0.34c0,0,0.024-0.15,0.069-0.432
		c0.045-0.281,0.096-0.702,0.103-1.242c0.026-0.54-0.026-1.201-0.135-1.954c-0.134-0.749-0.323-1.598-0.683-2.48
		c-0.33-0.893-0.818-1.817-1.421-2.746c-0.601-0.932-1.351-1.847-2.194-2.736c-0.415-0.451-0.892-0.861-1.345-1.304
		c-0.486-0.402-0.961-0.817-1.478-1.22c-1.079-0.804-2.111-1.565-3.291-2.175c-2.32-1.246-4.912-1.981-7.391-2.247
		c-2.482-0.273-4.842-0.106-6.816,0.259c-1.979,0.365-3.579,0.925-4.629,1.452c-0.525,0.264-0.912,0.522-1.143,0.737
		C75.778,23.268,75.729,23.44,75.729,23.44z"/>
</g>
<g>
	<path d="M93.104,46.44c0,0,0.07-0.236,0.27-0.646c0.243-0.389,0.654-0.933,1.303-1.496c0.625-0.59,1.484-1.185,2.494-1.822
		c1.031-0.6,2.218-1.254,3.594-1.787c1.367-0.541,2.891-1.059,4.566-1.343c1.668-0.292,3.488-0.418,5.346-0.099
		c0.462,0.113,0.922,0.165,1.398,0.334c0.438,0.154,0.88,0.31,1.324,0.465c0.898,0.261,1.769,0.735,2.655,1.187
		c0.459,0.203,0.865,0.487,1.267,0.783c0.402,0.294,0.827,0.564,1.213,0.884c0.714,0.708,1.49,1.374,2.046,2.231
		c0.655,0.783,1.074,1.716,1.544,2.605c0.374,0.932,0.752,1.861,0.983,2.82l0.201,0.711c0.064,0.327,0.083,0.497,0.127,0.752
		l0.112,0.704l0.016,0.774l0.007,0.773l-0.086,0.734c-0.05,0.49-0.117,0.975-0.252,1.437c-0.451,1.872-1.225,3.591-2.216,5.041
		c-0.993,1.446-2.105,2.705-3.311,3.678c-1.201,0.97-2.43,1.726-3.614,2.202c-0.591,0.244-1.146,0.471-1.694,0.582
		c-0.539,0.138-1.032,0.279-1.5,0.305c-0.462,0.047-0.875,0.104-1.235,0.123c-0.362-0.014-0.67-0.025-0.92-0.033
		c-0.5-0.022-0.767-0.033-0.767-0.033l0.258-1.984c0,0,0.221,0.016,0.635,0.043c0.207,0.016,0.463,0.035,0.764,0.058
		c0.301-0.007,0.646-0.048,1.035-0.073c0.393-0.002,0.813-0.115,1.275-0.217c0.469-0.074,0.951-0.258,1.468-0.452
		c1.037-0.376,2.141-1.007,3.243-1.838c1.106-0.835,2.149-1.944,3.098-3.229c0.946-1.289,1.695-2.834,2.154-4.502
		c0.139-0.415,0.21-0.844,0.268-1.277l0.1-0.652l0.014-0.635l0.019-0.644l-0.089-0.707l-0.087-0.663l-0.17-0.679
		c-0.19-0.923-0.519-1.798-0.839-2.685c-0.412-0.835-0.77-1.721-1.354-2.458c-0.486-0.812-1.189-1.444-1.83-2.13
		c-0.352-0.31-0.743-0.574-1.112-0.864c-0.368-0.292-0.743-0.574-1.163-0.773c-0.814-0.445-1.603-0.923-2.514-1.221
		c-0.439-0.17-0.876-0.339-1.31-0.508c-0.395-0.157-0.859-0.229-1.281-0.348c-1.746-0.359-3.513-0.298-5.15-0.065
		c-1.646,0.224-3.163,0.686-4.53,1.177c-1.375,0.483-2.569,1.093-3.611,1.655c-1.021,0.599-1.894,1.163-2.531,1.728
		c-0.662,0.54-1.084,1.062-1.339,1.441C93.182,46.206,93.104,46.44,93.104,46.44z"/>
</g>
<g>
	<path d="M105.104,57.94c-0.004,0.011,0.117,0.006,0.307,0.112c0.19,0.1,0.442,0.298,0.701,0.606
		c0.521,0.612,1.085,1.631,1.53,2.938c0.435,1.305,0.787,2.908,0.699,4.672c-0.043,0.879-0.213,1.801-0.594,2.682
		c-0.185,0.445-0.439,0.856-0.75,1.26c-0.279,0.352-0.565,0.705-0.92,1.055c-1.338,1.367-3.024,2.396-4.782,2.893
		c-0.871,0.279-1.758,0.375-2.596,0.432c-0.42,0.001-0.832-0.004-1.228-0.025c-0.392-0.051-0.776-0.083-1.138-0.147
		c-0.359-0.08-0.703-0.157-1.031-0.229c-0.317-0.104-0.619-0.203-0.902-0.295c-0.564-0.193-1.025-0.432-1.422-0.595
		c-0.745-0.409-1.172-0.644-1.172-0.644l1.094-1.676c0,0,0.355,0.229,0.979,0.629c0.33,0.158,0.715,0.396,1.188,0.592
		c0.236,0.097,0.489,0.199,0.755,0.307c0.274,0.082,0.563,0.167,0.864,0.256c0.305,0.076,0.627,0.123,0.96,0.191
		c0.335,0.039,0.685,0.067,1.044,0.093c0.718-0.003,1.488-0.027,2.259-0.221c1.551-0.32,3.136-1.142,4.417-2.284
		c0.316-0.267,0.628-0.598,0.936-0.936c0.26-0.297,0.516-0.64,0.697-1.011c0.384-0.738,0.604-1.563,0.7-2.38
		c0.2-1.642-0.026-3.227-0.361-4.525c-0.345-1.303-0.826-2.342-1.294-2.976c-0.232-0.317-0.465-0.53-0.644-0.64
		C105.223,57.956,105.098,57.95,105.104,57.94z"/>
</g>
<g>
	<path d="M79.104,44.565c0,0,0.282-0.032,0.812-0.092c0.53-0.015,1.321,0.038,2.292,0.273c0.484,0.117,1.006,0.305,1.576,0.496
		c0.543,0.256,1.17,0.457,1.77,0.813c1.255,0.611,2.537,1.535,3.865,2.623c1.293,1.131,2.548,2.524,3.654,4.166
		c1.063,1.671,1.904,3.613,2.393,5.73c0.088,0.537,0.178,1.077,0.268,1.621c0.084,0.547,0.057,1.105,0.09,1.664l0.028,0.843
		l-0.06,0.843c-0.017,0.546-0.137,1.127-0.215,1.697c-0.42,2.258-1.313,4.461-2.592,6.416c-1.293,1.943-2.926,3.673-4.803,5.012
		c-1.867,1.352-3.928,2.383-6.039,3.015c-2.107,0.645-4.245,0.934-6.27,0.926c-2.027-0.005-3.936-0.307-5.645-0.762
		c-1.717-0.44-3.216-1.079-4.504-1.708c-1.285-0.64-2.355-1.293-3.201-1.876c-0.855-0.573-1.492-1.069-1.916-1.42
		c-0.431-0.343-0.66-0.526-0.66-0.526l1.313-1.508c0,0,0.21,0.176,0.604,0.508c0.388,0.34,0.972,0.82,1.755,1.377
		c0.775,0.566,1.755,1.201,2.933,1.83c1.181,0.616,2.556,1.25,4.135,1.699c3.125,0.947,7.087,1.263,11.071,0.148
		c1.989-0.535,3.947-1.449,5.738-2.672c1.803-1.21,3.385-2.799,4.66-4.602c1.258-1.813,2.163-3.881,2.621-6.012
		c0.086-0.534,0.215-1.044,0.25-1.607l0.079-0.811l-0.006-0.807c-0.019-0.535,0.025-1.074-0.042-1.6
		c-0.072-0.525-0.144-1.047-0.215-1.563c-0.414-2.048-1.173-3.952-2.164-5.609c-1.034-1.628-2.227-3.03-3.47-4.18
		c-1.276-1.104-2.521-2.056-3.745-2.693c-0.584-0.37-1.197-0.585-1.73-0.854c-0.559-0.203-1.072-0.404-1.549-0.534
		c-0.959-0.26-1.736-0.334-2.268-0.334C79.387,44.541,79.104,44.565,79.104,44.565z"/>
</g>
<g>
	<path d="M63.729,61.065c0,0,0.098,0.132,0.244,0.406c0.152,0.277,0.335,0.703,0.48,1.273c0.298,1.135,0.488,2.848,0.156,4.871
		c-0.16,1.012-0.447,2.1-0.939,3.192c-0.479,1.097-1.167,2.199-2.11,3.158c-0.918,0.981-2.12,1.772-3.436,2.297
		c-1.337,0.513-2.729,0.763-4.127,0.8c-1.405,0.043-2.817-0.125-4.157-0.5c-1.331-0.406-2.571-1.014-3.643-1.768
		c-1.084-0.742-1.968-1.654-2.719-2.561c-0.755-0.908-1.313-1.874-1.774-2.773c-0.905-1.818-1.316-3.453-1.513-4.594
		c-0.107-0.569-0.144-1.024-0.173-1.332c-0.025-0.307-0.039-0.471-0.039-0.471s0.176,0.638,0.578,1.703
		c0.396,1.063,1.054,2.553,2.103,4.141c1.049,1.577,2.528,3.259,4.486,4.449c1.934,1.219,4.35,1.836,6.771,1.727
		c1.211-0.074,2.433-0.239,3.508-0.64c1.072-0.426,2.063-1.007,2.874-1.767c1.642-1.513,2.607-3.531,3.146-5.324
		c0.53-1.811,0.653-3.425,0.597-4.543C63.997,61.685,63.729,61.065,63.729,61.065z"/>
</g>
<g>
	<path d="M51.205,56.201c0,0-0.342-1.396-0.779-3.853c-0.219-1.229-0.474-2.722-0.702-4.443c-0.248-1.719-0.455-3.666-0.654-5.797
		c-0.159-2.134-0.336-4.45-0.302-6.923c0.026-1.236,0.09-2.51,0.247-3.821c0.073-0.656,0.177-1.319,0.312-1.998
		c0.146-0.682,0.286-1.36,0.643-2.118c0.104-0.195,0.204-0.391,0.407-0.612c0.179-0.207,0.554-0.479,0.999-0.461
		c0.101,0.006,0.214,0.013,0.292,0.042l0.126,0.042l0.062,0.023c0.007,0,0.185,0.092,0.121,0.062l0.205,0.148l0.412,0.301
		l0.837,0.815l0.693,0.798c0.456,0.536,0.87,1.092,1.323,1.628c0.426,0.552,0.854,1.107,1.283,1.665
		c1.711,2.228,3.45,4.492,5.188,6.755c1.734,2.271,3.445,4.57,4.946,6.956c0.767,1.184,1.492,2.381,2.196,3.58
		c0.355,0.597,0.701,1.197,1.027,1.809c0.338,0.621,0.664,1.233,0.792,1.301c0.021,0.023-0.01-0.044-0.212-0.115
		c-0.213-0.087-0.632-0.047-0.772,0.061c-0.272,0.178-0.097,0.072-0.03-0.106c0.189-0.366,0.369-0.942,0.514-1.493
		c0.277-1.136,0.494-2.334,0.695-3.498c0.361-2.345,0.643-4.609,0.857-6.702c0.454-4.19,0.725-7.712,0.859-10.174
		c0.073-1.231,0.076-2.199,0.043-2.849c-0.018-0.657-0.115-0.969-0.115-0.969l0.273-0.126c0,0,0.209,0.338,0.404,0.998
		c0.195,0.661,0.391,1.638,0.59,2.886c0.377,2.498,0.653,6.081,0.617,10.391c-0.039,2.155-0.125,4.492-0.432,6.979
		c-0.146,1.25-0.332,2.529-0.694,3.875c-0.19,0.682-0.376,1.358-0.782,2.156c-0.236,0.393-0.418,0.873-1.261,1.397
		c-0.425,0.261-1.196,0.374-1.726,0.165c-0.514-0.18-0.817-0.449-1.028-0.664c-0.22-0.227-0.357-0.424-0.499-0.629
		c-0.124-0.202-0.27-0.447-0.324-0.569l-0.459-0.93c-0.285-0.593-0.58-1.192-0.892-1.793c-0.607-1.204-1.262-2.411-1.925-3.628
		c-1.332-2.442-2.684-4.922-4.036-7.403c-1.378-2.474-2.867-4.89-4.544-7.105c-0.843-1.101-1.706-2.182-2.666-3.118l-0.717-0.686
		l-0.682-0.537l-0.444-0.237l-0.223-0.118c-0.083-0.041,0.078,0.037,0.064,0.033l0.001,0.005l0.005,0.006
		c-0.001-0.004,0.026,0.015,0.043,0.013c0.104,0.012,0.177-0.049,0.148-0.002c-0.017,0.032-0.058,0.144-0.09,0.251
		c-0.26,1.024-0.223,2.387-0.197,3.605c0.04,1.248,0.095,2.48,0.152,3.683c0.077,2.417,0.149,4.703,0.217,6.813
		c0.04,2.119,0.101,4.064,0.103,5.795c0.023,1.729,0.003,3.242-0.024,4.489c-0.046,2.494-0.189,3.93-0.189,3.93L51.205,56.201z"/>
</g>
</svg>
